<svg xmlns="http://www.w3.org/2000/svg" viewBox="0 0 51 51" width="51" height="51">
	<style>
		tspan { white-space:pre }
		.shp0 { fill: #ffffff } 
	</style>
	<path id="Layer" fill-rule="evenodd" class="shp0" d="M2 11.4L2 12.97C2 13.4 2.35 13.75 2.78 13.75L5.13 13.75L5.13 14.92C5.13 15.57 5.66 16.1 6.31 16.1L44.69 16.1C45.34 16.1 45.87 15.57 45.87 14.92L45.87 13.75L48.22 13.75C48.65 13.75 49 13.4 49 12.97L49 11.4C49 11.11 48.78 10.79 48.52 10.68L25.8 2.06C25.72 2.03 25.59 2 25.5 2C25.41 2 25.28 2.03 25.2 2.06L2.48 10.68C2.22 10.79 2 11.11 2 11.4ZM4.35 42.17C3.05 42.17 2 43.22 2 44.52L2 46.08C2 46.52 2.35 46.87 2.78 46.87L48.22 46.87C48.65 46.87 49 46.52 49 46.08L49 44.52C49 43.22 47.95 42.17 46.65 42.17L4.35 42.17ZM41.17 17.67L34.9 17.67L34.9 36.47L28.63 36.47L28.63 17.67L22.37 17.67L22.37 36.47L16.1 36.47L16.1 17.67L9.83 17.67L9.83 36.47L6.31 36.47C5.66 36.47 5.13 36.99 5.13 37.64L5.13 39.6L45.87 39.6L45.87 37.64C45.87 36.99 45.34 36.47 44.69 36.47L41.17 36.47L41.17 17.67Z" />
</svg>