<svg xmlns="http://www.w3.org/2000/svg" viewBox="0 0 51 51" width="51" height="51">
	<style>
		tspan { white-space:pre }
		.shp0 { fill: #ffffff } 
	</style>
	<path id="Layer" fill-rule="evenodd" class="shp0" d="M44 17.39L44 42.06C44 44.32 42.15 46.17 39.89 46.17L11.11 46.17C8.85 46.17 7 44.32 7 42.06L7.02 17.39C7.02 15.13 8.85 13.28 11.11 13.28L15.22 13.28C15.22 7.6 19.83 3 25.5 3C31.17 3 35.78 7.6 35.78 13.28L39.89 13.28C42.15 13.28 44 15.13 44 17.39ZM19.33 13.28L31.67 13.28C31.67 9.87 28.91 7.11 25.5 7.11C22.09 7.11 19.33 9.87 19.33 13.28ZM35.78 17.39L31.67 17.39C31.67 20.8 28.91 23.56 25.5 23.56C22.09 23.56 19.33 20.8 19.33 17.39L15.22 17.39C15.22 23.06 19.83 27.67 25.5 27.67C31.17 27.67 35.78 23.06 35.78 17.39Z" />
</svg>