<svg xmlns="http://www.w3.org/2000/svg" viewBox="0 0 51 51" width="51" height="51">
	<style>
		tspan { white-space:pre }
		.shp0 { fill: #ffffff } 
	</style>
	<path id="Layer" fill-rule="evenodd" class="shp0" d="M49.27 26.7C48.61 39.82 37.43 49.93 24.3 49.27C21.73 49.14 19.28 48.61 17.01 47.74C7.63 44.17 1.19 34.87 1.73 24.3C2.39 11.18 13.57 1.07 26.7 1.73C29.27 1.86 31.72 2.39 33.99 3.26C43.37 6.84 49.81 16.14 49.27 26.7ZM35.96 41.52C36.8 40.98 37.62 40.42 38.36 39.75C40.61 37.72 42.29 35.24 43.36 32.49L41.12 27.89L33.99 27.44L29.22 33.35L31.06 40.31L35.96 41.52ZM44.01 20.41C42.96 16.58 40.75 13.16 37.68 10.66L32.53 11.38L30 18L34.17 24.37L41.27 24.82L44.01 20.41ZM26.33 6.34C22.29 6.16 18.42 7.28 15.1 9.44L14.21 14.49L19.78 18.88L27.13 16.91L29.66 10.29L26.33 6.34ZM11.5 32.85L17.51 28.8L17.87 21.31L12.26 16.88L7.51 18.81C5.65 23.83 6.35 28.15 6.96 30.45L11.5 32.85ZM13.53 40.51C18.58 44.53 23.83 44.62 24.44 44.67L28.1 41.12L26.24 34.07L19.19 31.38L13.17 35.43L13.53 40.51Z" />
</svg>