<svg xmlns="http://www.w3.org/2000/svg" viewBox="0 0 51 51" width="51" height="51">
	<style>
		tspan { white-space:pre }
		.shp0 { fill: #ffffff } 
	</style>
	<g id="Layer">
		<path id="Layer" fill-rule="evenodd" class="shp0" d="M47 22.72L47 41.83C47 43.15 45.92 44.22 44.61 44.22L42.22 44.22C40.91 44.22 39.83 43.15 39.83 41.83L39.83 39.44L11.17 39.44L11.17 41.83C11.17 43.15 10.09 44.22 8.78 44.22L6.39 44.22C5.07 44.22 4 43.15 4 41.83L4 22.72L8.97 8.41C9.47 7 10.78 6 12.36 6L38.64 6C40.22 6 41.55 7 42.03 8.41L47 22.72ZM15.94 28.69C15.94 26.71 14.34 25.11 12.36 25.11C10.38 25.11 8.78 26.71 8.78 28.69C8.78 30.68 10.38 32.28 12.36 32.28C14.34 32.28 15.94 30.68 15.94 28.69ZM42.22 28.69C42.22 26.71 40.62 25.11 38.64 25.11C36.66 25.11 35.06 26.71 35.06 28.69C35.06 30.68 36.66 32.28 38.64 32.28C40.62 32.28 42.22 30.68 42.22 28.69ZM42.22 20.33L38.64 9.58L12.36 9.58L8.78 20.33L42.22 20.33Z" />
	</g>
</svg>