<svg xmlns="http://www.w3.org/2000/svg" viewBox="0 0 51 51" width="51" height="51">
	<style>
		tspan { white-space:pre }
		.shp0 { fill: #ffffff } 
	</style>
	<path id="Layer" fill-rule="evenodd" class="shp0" d="M44.77 21.4C42.41 21.4 40.49 23.33 40.49 25.68L40.49 32.1L10.51 32.1L10.51 25.68C10.51 23.33 8.61 21.4 6.23 21.4C3.86 21.4 1.95 23.33 1.95 25.68L1.95 36.39C1.95 38.74 3.88 40.67 6.23 40.67L44.77 40.67C47.12 40.67 49.05 38.74 49.05 36.39L49.05 25.68C49.05 23.33 47.12 21.4 44.77 21.4ZM38.35 10.7L12.65 10.7C10.3 10.7 8.37 12.62 8.37 14.98L8.37 19.58C10.86 20.46 12.65 22.83 12.65 25.6L12.65 29.96L38.35 29.96L38.35 25.62C38.35 22.83 40.14 20.48 42.63 19.6L42.63 14.98C42.63 12.62 40.7 10.7 38.35 10.7Z" />
</svg>