<svg xmlns="http://www.w3.org/2000/svg" viewBox="0 0 51 51" width="51" height="51">
	<style>
		tspan { white-space:pre }
		.shp0 { fill: #ffffff } 
	</style>
	<path id="Layer" fill-rule="evenodd" class="shp0" d="M49.77 5.63C49.92 5.99 50 6.38 50 6.78C50 7.17 49.92 7.56 49.77 7.92C49.62 8.29 49.4 8.62 49.12 8.9L44.78 13.24C44.69 13.33 44.59 13.42 44.49 13.49C44.39 13.57 44.29 13.65 44.18 13.72C44.07 13.78 43.96 13.84 43.84 13.9C43.72 13.95 43.61 14 43.48 14.04L40.06 15.18L32.92 22.33C33.74 23.47 34.39 24.72 34.71 26.1C35.44 29.23 34.79 32.37 32.65 34.51C32.43 34.73 32.2 34.93 31.96 35.12C31.71 35.31 31.46 35.49 31.19 35.65C30.93 35.81 30.66 35.95 30.38 36.08C30.09 36.21 29.81 36.32 29.51 36.41C27.77 36.97 26.45 38.59 26.28 40.36C26.07 42.59 25.21 44.66 23.62 46.24C19.34 50.5 11.66 49.75 6.46 44.55C1.26 39.35 0.49 31.66 4.77 27.39C6.35 25.8 8.42 24.94 10.64 24.73C12.41 24.56 14.03 23.24 14.59 21.5C14.68 21.2 14.79 20.91 14.92 20.63C15.05 20.35 15.19 20.08 15.35 19.81C15.51 19.55 15.68 19.29 15.87 19.05C16.06 18.81 16.27 18.58 16.49 18.36C18.63 16.21 21.78 15.56 24.91 16.29C26.28 16.61 27.53 17.27 28.67 18.09L35.82 10.94L36.96 7.52C37 7.39 37.05 7.28 37.11 7.16C37.16 7.04 37.22 6.93 37.29 6.82C37.36 6.71 37.43 6.61 37.51 6.51C37.59 6.41 37.67 6.31 37.76 6.22L42.1 1.88C42.38 1.6 42.71 1.38 43.08 1.23C43.44 1.08 43.83 1 44.22 1C44.62 1 45.01 1.08 45.37 1.23C45.74 1.38 46.07 1.6 46.35 1.88L49.12 4.66C49.4 4.94 49.62 5.27 49.77 5.63ZM23.22 33.66C23.77 33.43 24.26 33.1 24.68 32.69C25.1 32.27 25.43 31.77 25.66 31.23C25.88 30.68 26 30.09 26 29.5C26 27.68 24.9 26.04 23.22 25.35C21.54 24.65 19.61 25.03 18.32 26.32C17.03 27.61 16.65 29.54 17.34 31.23C18.04 32.91 19.68 34 21.5 34C22.09 34 22.68 33.89 23.22 33.66Z" />
</svg>