<svg xmlns="http://www.w3.org/2000/svg" viewBox="0 0 51 51" width="51" height="51">
	<style>
		tspan { white-space:pre }
		.shp0 { fill: #ffffff } 
	</style>
	<path id="Layer" class="shp0" d="M8.25 26.9C5.35 26.9 3 24.55 3 21.65C3 18.75 5.35 16.4 8.25 16.4C11.15 16.4 13.5 18.75 13.5 21.65C13.5 24.55 11.15 26.9 8.25 26.9Z" />
	<path id="Layer" class="shp0" d="M17.7 16.5C14.8 16.5 12.45 14.15 12.45 11.25C12.45 8.35 14.8 6 17.7 6C20.6 6 22.95 8.35 22.95 11.25C22.95 14.15 20.6 16.5 17.7 16.5Z" />
	<path id="Layer" class="shp0" d="M31.3 16.5C28.4 16.5 26.05 14.15 26.05 11.25C26.05 8.35 28.4 6 31.3 6C34.2 6 36.55 8.35 36.55 11.25C36.55 14.15 34.2 16.5 31.3 16.5Z" />
	<path id="Layer" class="shp0" d="M41.75 25.9C38.85 25.9 36.5 23.55 36.5 20.65C36.5 17.75 38.85 15.4 41.75 15.4C44.65 15.4 47 17.75 47 20.65C47 23.55 44.65 25.9 41.75 25.9Z" />
	<path id="Layer" class="shp0" d="M36.21 29.91C34.39 27.76 32.85 25.94 31.01 23.79C30.04 22.66 28.8 21.53 27.33 21.02C27.1 20.94 26.87 20.88 26.64 20.83C26.11 20.75 25.55 20.75 25 20.75C24.45 20.75 23.89 20.75 23.34 20.86C23.11 20.9 22.88 20.96 22.65 21.04C21.18 21.55 19.96 22.68 18.97 23.82C17.15 25.96 15.61 27.79 13.77 29.93C11.01 32.68 7.63 35.72 8.26 39.99C8.87 42.13 10.41 44.25 13.16 44.86C14.69 45.17 19.58 43.93 24.79 43.93L25.17 43.93C30.38 43.93 35.27 45.15 36.8 44.86C39.55 44.25 41.09 42.11 41.7 39.99C42.35 35.7 38.97 32.66 36.21 29.91L36.21 29.91Z" />
</svg>