<svg xmlns="http://www.w3.org/2000/svg" viewBox="0 0 587 170" width="587" height="170">
	<style>
		tspan { white-space:pre }
		.shp0 { fill: #FFFFFF }
	</style>
	<g id="Layer">
		<path id="Layer" fill-rule="evenodd" class="shp0" d="M77.4 3L82 5.7C84.5 7.2 88.1 9.3 90.2 10.5C92.2 11.6 96.4 14 99.7 15.9C102.9 17.8 106.9 20.1 108.5 21C110.2 22 117.6 26.2 125 30.5C132.4 34.8 140.6 39.4 143.2 40.7C146.2 42.2 148.2 44 148.6 45.4C148.9 46.6 149 65.5 148.8 87.4L148.5 127.2L145.5 129.3C143.9 130.5 138.5 133.8 133.5 136.6C123.3 142.3 106.8 151.7 90.1 161.4C83.8 165 77.8 168 76.9 168C75.9 168 70.7 165.4 65.3 162.2C59.9 159 51 153.7 45.5 150.6C40 147.4 33.9 143.9 32 142.8C30.1 141.7 25.4 138.9 21.5 136.7C17.7 134.5 12.4 131.4 9.7 129.7L5 126.8L5 44.4L8.3 42.6C10 41.6 15.6 38.4 20.5 35.5C43.3 22.2 67.9 8.1 72.5 5.7L77.4 3ZM65.5 34.4C64.4 34 44.2 45.5 40.1 48.7L37.7 50.7L47.2 56.3C52.4 59.4 57 62 57.3 62C57.6 62 59.6 63.1 61.6 64.5C63.7 65.9 65.7 66.7 66.2 66.2C66.7 65.7 66.9 58.4 66.8 50C66.6 40.9 66.1 34.5 65.5 34.4ZM87.6 36.2C86.8 39.2 86.8 61.8 87.6 64.7C88.4 67.7 89.7 67.6 96.3 63.7C99.3 62 105.3 58.6 109.5 56.2C113.7 53.8 117 51.4 116.8 50.8C116.6 50.2 112.4 47.3 107.4 44.4C102.5 41.5 96.6 38 94.4 36.6C89.3 33.4 88.4 33.4 87.6 36.2ZM26.7 69.7C25.6 70.8 25.9 99.8 27 100.5C27.5 100.8 29.1 100.5 30.4 99.8C50.4 89 54.1 86.7 53.8 85.2C53.6 84 38 74 36.4 74C36.2 74 34.4 72.9 32.4 71.5C28.5 68.8 27.7 68.6 26.7 69.7ZM127.2 71C124.8 71 100 85.2 100 86.5C100 87.2 102.4 88.9 105.3 90.5C108.1 92 113.2 95 116.5 97.1C123.4 101.4 128 102.9 128 100.9C128.1 97.4 128.2 77.1 128.1 74.2C128 72.5 127.6 71 127.2 71ZM65 105.3C63.3 105 36.8 119.2 36.3 120.6C36.1 121.2 39.5 123.5 43.7 125.8C48 128.2 54.6 131.9 58.4 134.1C62.3 136.3 65.7 137.7 66.2 137.2C66.7 136.7 66.9 129.4 66.8 120.9C66.5 108.2 66.2 105.5 65 105.3ZM87.6 108.8C86.9 113.3 87 129.1 87.7 134.2C88.2 138.6 87.9 138.6 100.5 131.7C111 125.9 116 122.8 116 121.9C116 121.2 106.5 115 97.5 109.8C88.3 104.6 88.2 104.6 87.6 108.8Z" />
		<path id="Aleksov " fill-rule="evenodd" class="shp0" d="M250.44 127L235.73 127L227.56 108.03L188.12 108.03L179.95 127L165 127L201.69 45.92L213.76 45.92L250.44 127ZM207.78 62.02L192.94 96.53L222.62 96.53L207.78 62.02ZM272.18 127L257.81 127L257.81 45.92L272.18 45.92L272.18 127ZM336.35 97.44L336.35 101.47L298.06 101.47C298.51 106.68 300.09 110.55 302.77 113.08C305.45 115.61 309.29 116.88 314.27 116.88C320.48 116.88 326.15 114.89 331.29 110.9L335.43 120.79C332.82 122.94 329.53 124.66 325.54 125.97C321.63 127.27 317.68 127.92 313.69 127.92C304.5 127.92 297.21 125.31 291.85 120.1C286.56 114.89 283.91 107.76 283.91 98.71C283.91 92.96 285.06 87.86 287.36 83.41C289.66 78.97 292.88 75.52 297.02 73.06C301.24 70.61 305.99 69.38 311.28 69.38C319.02 69.38 325.12 71.88 329.56 76.86C334.09 81.84 336.35 88.7 336.35 97.44ZM311.63 79.5C307.79 79.5 304.69 80.73 302.31 83.19C300.01 85.64 298.59 89.16 298.06 93.77L324.04 93.77C323.89 89.09 322.74 85.56 320.6 83.19C318.45 80.73 315.46 79.5 311.63 79.5ZM377.29 97.79L404.43 127L386.61 127L362.45 101.36L362.45 127L348.08 127L348.08 45.92L362.45 45.92L362.45 95.38L385.11 70.88L402.59 70.88L377.29 97.79ZM429.62 127.92C424.63 127.92 420.03 127.31 415.81 126.08C411.68 124.85 408.15 123.09 405.24 120.79L409.26 110.78C415.24 115.16 422.1 117.34 429.85 117.34C433.14 117.34 435.63 116.8 437.32 115.73C439.08 114.66 439.96 113.12 439.96 111.13C439.96 109.44 439.35 108.14 438.13 107.22C436.97 106.3 434.87 105.46 431.8 104.69L422.6 102.62C417.39 101.47 413.51 99.59 410.99 96.98C408.45 94.38 407.19 91 407.19 86.86C407.19 83.41 408.15 80.39 410.06 77.78C412.06 75.1 414.78 73.03 418.23 71.57C421.76 70.11 425.82 69.38 430.42 69.38C434.41 69.38 438.24 70 441.92 71.22C445.68 72.45 448.97 74.18 451.81 76.4L447.78 86.17C441.96 81.96 436.13 79.85 430.31 79.85C427.16 79.85 424.71 80.42 422.94 81.57C421.18 82.72 420.3 84.33 420.3 86.41C420.3 87.94 420.84 89.2 421.91 90.2C423.06 91.2 424.86 91.96 427.31 92.5L436.86 94.69C442.46 95.91 446.56 97.87 449.17 100.55C451.77 103.16 453.07 106.61 453.07 110.9C453.07 116.11 450.97 120.25 446.75 123.32C442.53 126.39 436.82 127.92 429.62 127.92ZM490.34 127.92C484.59 127.92 479.53 126.73 475.16 124.36C470.86 121.98 467.53 118.57 465.15 114.12C462.77 109.67 461.59 104.5 461.59 98.59C461.59 92.69 462.77 87.55 465.15 83.19C467.53 78.74 470.86 75.33 475.16 72.95C479.53 70.57 484.59 69.38 490.34 69.38C496.09 69.38 501.11 70.57 505.4 72.95C509.77 75.33 513.11 78.74 515.4 83.19C517.78 87.55 518.97 92.69 518.97 98.59C518.97 104.5 517.78 109.67 515.4 114.12C513.11 118.57 509.77 121.98 505.4 124.36C501.11 126.73 496.09 127.92 490.34 127.92ZM490.22 116.77C494.9 116.77 498.46 115.23 500.92 112.16C503.37 109.1 504.6 104.58 504.6 98.59C504.6 92.69 503.37 88.21 500.92 85.14C498.46 82 494.94 80.42 490.34 80.42C485.74 80.42 482.17 82 479.64 85.14C477.19 88.21 475.96 92.69 475.96 98.59C475.96 104.58 477.19 109.1 479.64 112.16C482.09 115.23 485.62 116.77 490.22 116.77ZM553.01 110.56L569.34 70.88L583.49 70.88L558.88 127L546.34 127L521.96 70.88L537.14 70.88L553.01 110.56Z" />
	</g>
</svg>
